<svg xmlns="http://www.w3.org/2000/svg" width="155" height="123" fill="none"><g filter="url(#a)"><path fill="url(#b)" fill-opacity=".5" fill-rule="evenodd" d="m135.46 81.154-.153-.102c-1.643-1.088-3.282-2.174-5.02-3.124-5.973-3.268-12.873-5.4-19.709-5.492a1.083 1.083 0 0 0-1.096 1.065 1.082 1.082 0 0 0 1.066 1.094c6.487.084 13.033 2.126 18.7 5.227 1.717.94 3.337 2.015 4.961 3.091a135.455 135.455 0 0 0 2.593 1.695c.34.224 1.058.696 1.269.767.611.212 1-.09 1.162-.254.136-.134.268-.328.331-.61.05-.231.042-.693-.101-1.308-.296-1.301-1.142-3.68-1.741-5.366-.309-.87-.553-1.556-.622-1.815-2.056-7.677-2.848-15.187-3.67-22.971-.11-1.048-.221-2.1-.336-3.16a1.085 1.085 0 0 0-1.192-.958 1.079 1.079 0 0 0-.956 1.19c.11 1.021.218 2.037.325 3.05.726 6.872 1.43 13.531 2.967 20.27-9.745-16.968-28.025-22.066-46.614-20.55-18.25 1.487-36.757 9.387-47.59 18.504.532-.99.986-1.846 1.223-2.3.365-.703.923-1.643 1.576-2.745 1.916-3.23 4.655-7.85 5.8-11.956 1.173-4.2.685-7.877-3.066-9.601-3.41-1.567-7.442-.087-11.398 3.216-8.515 7.109-16.902 22.514-18.232 27.822a1.079 1.079 0 1 0 2.095.524c1.278-5.093 9.348-19.866 17.522-26.69 3.195-2.668 6.356-4.177 9.11-2.91 2.719 1.248 2.738 4.014 1.888 7.06-1.108 3.977-3.774 8.439-5.647 11.574-.65 1.09-1.205 2.018-1.566 2.711-.29.558-.87 1.625-1.523 2.825-1.32 2.429-2.94 5.404-3.054 5.817-.215.77.294 1.14.47 1.249.136.085.844.462 1.475-.29 9-10.724 30.238-20.958 51.09-22.658 19.966-1.628 39.628 4.613 47.663 26.109Z" clip-rule="evenodd"/></g><path fill="url(#c)" fill-rule="evenodd" d="m135.46 78.315-.153-.102c-1.643-1.088-3.282-2.174-5.02-3.124-5.973-3.268-12.873-5.4-19.709-5.492a1.083 1.083 0 0 0-1.096 1.065 1.082 1.082 0 0 0 1.066 1.095c6.487.084 13.033 2.125 18.7 5.226 1.717.94 3.337 2.015 4.961 3.092.803.533 1.607 1.066 2.424 1.584l.169.11c.34.224 1.058.696 1.269.768.611.211 1-.091 1.162-.254.136-.135.268-.329.331-.61.05-.232.042-.694-.101-1.309-.296-1.3-1.142-3.68-1.741-5.366-.309-.87-.553-1.556-.622-1.814-2.056-7.677-2.848-15.187-3.67-22.972-.11-1.048-.221-2.1-.336-3.16a1.085 1.085 0 0 0-1.192-.958 1.078 1.078 0 0 0-.956 1.19c.11 1.021.218 2.038.325 3.05.726 6.873 1.43 13.532 2.967 20.271-9.745-16.969-28.025-22.067-46.614-20.55-18.25 1.487-36.757 9.386-47.59 18.503.532-.99.986-1.846 1.223-2.3.365-.702.923-1.642 1.576-2.744 1.916-3.23 4.655-7.85 5.8-11.956 1.173-4.2.685-7.877-3.066-9.602-3.41-1.567-7.442-.086-11.398 3.216-8.515 7.11-16.902 22.515-18.232 27.822a1.079 1.079 0 1 0 2.095.524c1.278-5.093 9.348-19.865 17.522-26.69 3.195-2.667 6.356-4.176 9.11-2.91 2.719 1.249 2.738 4.015 1.888 7.06-1.108 3.978-3.774 8.44-5.647 11.575-.65 1.089-1.205 2.017-1.566 2.71-.29.558-.87 1.625-1.523 2.825-1.32 2.429-2.94 5.405-3.054 5.817-.215.771.294 1.14.47 1.25.136.084.844.46 1.475-.291 9-10.724 30.238-20.957 51.09-22.658 19.966-1.628 39.628 4.614 47.663 26.109Z" clip-rule="evenodd"/><path fill="url(#d)" d="m15.5 25.528 32.624-5.473-3.622 29.914-22.034 24.733-6.968.564V25.528Z"/><path fill="url(#e)" d="m15.5 25.528 32.624-5.473-3.622 29.914-22.034 24.733-6.968.564V25.528Z"/><defs><linearGradient id="b" x1="20.397" x2="141.22" y1="52.652" y2="75.908" gradientUnits="userSpaceOnUse"><stop stop-color="#FF2F2F" stop-opacity="0"/><stop offset=".363" stop-color="#EF7B16"/><stop offset=".698" stop-color="#8A43E1"/><stop offset="1" stop-color="#D511FD" stop-opacity="0"/></linearGradient><linearGradient id="c" x1="20.397" x2="141.22" y1="49.814" y2="73.069" gradientUnits="userSpaceOnUse"><stop stop-color="#FF2F2F"/><stop offset=".363" stop-color="#EF7B16"/><stop offset=".698" stop-color="#8A43E1"/><stop offset="1" stop-color="#D511FD"/></linearGradient><linearGradient id="d" x1="39.977" x2="16.783" y1="41.601" y2="73.723" gradientUnits="userSpaceOnUse"><stop stop-color="#F1F0EE" stop-opacity="0"/><stop offset="1" stop-color="#F1F0EE"/></linearGradient><linearGradient id="e" x1="39.977" x2="16.783" y1="41.601" y2="73.723" gradientUnits="userSpaceOnUse"><stop stop-color="#F1F0EE" stop-opacity="0"/><stop offset="1" stop-color="#F1F0EE"/></linearGradient><filter id="a" width="153.688" height="71.28" x=".904" y="29.168" color-interpolation-filters="sRGB" filterUnits="userSpaceOnUse"><feFlood flood-opacity="0" result="BackgroundImageFix"/><feBlend in="SourceGraphic" in2="BackgroundImageFix" result="shape"/><feGaussianBlur result="effect1_foregroundBlur_88_6471" stdDeviation="7.5"/></filter></defs></svg>